# xmcd CD database file
#
# Track frame offsets:
#	150
#	10589
#	24855
#	35178
#	47646
#	59267
#	72728
#	90164
#	103733
#	117565
#	131323
#	143661
#	157356
#	171504
#	184780
#	198447
#	212132
#	224242
#	238584
#	249590
#	263642
#	275595
#	289308
#
# Disc length: 4036 seconds
#
# Revision: 0
# Processed by: cddbd v1.5.2PL0 Copyright (c) Steve Scherf et al.
# Submitted via: CDex 1.51
#
DISCID=670fc217
DTITLE=Frank Johnson - Frank Johnson's Fabulous Dixielanders et.al. 
DYEAR=1950
DGENRE=Jazz
TTITLE0=Roll 'em Girls, Roll 'em
TTITLE1=St Louis Blues
TTITLE2=Yes, Sir That's My Baby
TTITLE3=Silver Bell
TTITLE4=My Melancholy Baby
TTITLE5=Down South
TTITLE6=Nobody's Sweetheart
TTITLE7=Tiger Rag
TTITLE8=Oh Gee, Say Dee
TTITLE9=Teapot Dome Blues
TTITLE10=Ballin' The Jack
TTITLE11=Terrible Blues
TTITLE12=When The Saints
TTITLE13=House Of David Blues
TTITLE14=Varka Yiallo
TTITLE15=blues
TTITLE16=Ballin The Jack
TTITLE17=Sweet Patootie
TTITLE18=Tea Garden Rag
TTITLE19=Weary Blues
TTITLE20=Darktown Strutters Ball
TTITLE21=Terrible Blues
TTITLE22=Teapot Dome Blues
EXTD=YEAR: 1950
EXTT0=
EXTT1=
EXTT2=
EXTT3=
EXTT4=
EXTT5=
EXTT6=
EXTT7=
EXTT8=
EXTT9=
EXTT10=
EXTT11=
EXTT12=
EXTT13=
EXTT14=
EXTT15=
EXTT16=
EXTT17=
EXTT18=
EXTT19=
EXTT20=
EXTT21=
EXTT22=
PLAYORDER=
